<svg width="29" height="30" fill="none" xmlns="http://www.w3.org/2000/svg"><path d="M21.568 18.892v.736c0 .181-.09.272-.272.272H20v.272c0 .757-.219 1.355-.656 1.792-.448.437-1.061.656-1.84.656h-.368c-.192 0-.288-.096-.288-.288v-1.008c0-.181.096-.272.288-.272h.24c.448 0 .773-.101.976-.304.192-.203.288-.533.288-.992v-.832c0-.448-.101-.773-.304-.976-.213-.203-.555-.304-1.024-.304H16.8c-.448 0-.752.139-.912.416-.17.277-.272.693-.304 1.248-.032.79-.09 1.339-.176 1.648-.085.31-.219.592-.4.848-.373.544-1.061.816-2.064.816h-.752c-.779 0-1.387-.213-1.824-.64-.448-.437-.672-1.04-.672-1.808V19.9H8.384c-.181 0-.272-.09-.272-.272v-.736c0-.181.09-.272.272-.272h1.312v-.08c0-.725.224-1.296.672-1.712.448-.427 1.056-.64 1.824-.64h.352c.192 0 .288.09.288.272v1.008c0 .192-.096.288-.288.288h-.208c-.448 0-.768.101-.96.304-.203.192-.304.517-.304.976v.736c0 .47.107.8.32.992.203.192.555.288 1.056.288h.544c.405 0 .688-.133.848-.4.16-.277.256-.699.288-1.264l.032-.816c.043-.747.256-1.35.64-1.808.373-.459 1.019-.688 1.936-.688h.768c.779 0 1.392.224 1.84.672.437.437.656 1.035.656 1.792v.08h1.296c.181 0 .272.09.272.272z" fill="#222"/><circle cx="14.5" cy="15" r="13.5" stroke="#222" stroke-width="2"/></svg>