<svg width="26" height="30" fill="none" xmlns="http://www.w3.org/2000/svg"><path fill-rule="evenodd" clip-rule="evenodd" d="M22 11.5C22 17.299 17.299 22 11.5 22S1 17.299 1 11.5 5.701 1 11.5 1 22 5.701 22 11.5zm-3.54 9.156A11.449 11.449 0 0111.5 23C5.149 23 0 17.851 0 11.5S5.149 0 11.5 0 23 5.149 23 11.5a11.47 11.47 0 01-3.77 8.514l6.302 9.003a.5.5 0 01-.819.573l-6.254-8.934z" fill="#222"/><path fill-rule="evenodd" clip-rule="evenodd" d="M22 11.5C22 17.299 17.299 22 11.5 22S1 17.299 1 11.5 5.701 1 11.5 1 22 5.701 22 11.5zm-3.54 9.156A11.449 11.449 0 0111.5 23C5.149 23 0 17.851 0 11.5S5.149 0 11.5 0 23 5.149 23 11.5a11.47 11.47 0 01-3.77 8.514l6.302 9.003a.5.5 0 01-.819.573l-6.254-8.934z" fill="#245DEE"/></svg>