<svg width="28" height="22" fill="none" xmlns="http://www.w3.org/2000/svg"><path d="M27.563 2.603c-1.014.442-2.103.74-3.248.875A5.588 5.588 0 0026.801.405a11.421 11.421 0 01-3.591 1.348A5.694 5.694 0 0019.083 0c-3.122 0-5.654 2.486-5.654 5.553 0 .435.05.859.146 1.266A16.153 16.153 0 011.921 1.017a5.451 5.451 0 00-.766 2.792c0 1.927.998 3.626 2.515 4.622a5.707 5.707 0 01-2.561-.694v.07c0 2.69 1.949 4.934 4.535 5.445a5.837 5.837 0 01-2.554.097c.72 2.205 2.808 3.81 5.281 3.856a11.475 11.475 0 01-7.021 2.378c-.457 0-.907-.027-1.35-.08A16.214 16.214 0 008.667 22c10.4 0 16.088-8.462 16.088-15.8 0-.241-.005-.48-.017-.719a11.411 11.411 0 002.825-2.878z" fill="#FEFEFE"/></svg>