<svg width="36" height="37" viewBox="0 0 36 37" fill="none" xmlns="http://www.w3.org/2000/svg">
<path d="M8.98462 7.78093L26.9538 7.78093L32.9436 18.1555L26.9538 28.53L8.98461 28.53L2.99487 18.1555L8.98462 7.78093Z" fill="#222222"/>
<path d="M23.959 17.7599C23.959 18.9446 23.6077 20.1027 22.9495 21.0877C22.2914 22.0727 21.3559 22.8404 20.2614 23.2937C19.1669 23.7471 17.9626 23.8657 16.8007 23.6346C15.6388 23.4035 14.5715 22.833 13.7338 21.9953C12.8962 21.1577 12.3257 20.0904 12.0946 18.9285C11.8635 17.7666 11.9821 16.5623 12.4354 15.4678C12.8888 14.3733 13.6565 13.4378 14.6415 12.7797C15.6265 12.1215 16.7846 11.7702 17.9692 11.7702V13.5907C17.1446 13.5907 16.3386 13.8352 15.6529 14.2933C14.9673 14.7515 14.4329 15.4026 14.1174 16.1644C13.8018 16.9263 13.7192 17.7646 13.8801 18.5733C14.041 19.3821 14.4381 20.125 15.0211 20.708C15.6042 21.2911 16.3471 21.6882 17.1559 21.8491C17.9646 22.01 18.8029 21.9274 19.5647 21.6118C20.3266 21.2963 20.9777 20.7619 21.4358 20.0763C21.894 19.3906 22.1385 18.5845 22.1385 17.7599H23.959Z" fill="#FEFEFE"/>
</svg>
