<svg width="29" height="30" viewBox="0 0 29 30" fill="none" xmlns="http://www.w3.org/2000/svg">
<path d="M21.568 18.892L21.568 19.628C21.568 19.8093 21.4773 19.9 21.296 19.9L20 19.9L20 20.172C20 20.9293 19.7813 21.5267 19.344 21.964C18.896 22.4013 18.2827 22.62 17.504 22.62L17.136 22.62C16.944 22.62 16.848 22.524 16.848 22.332L16.848 21.324C16.848 21.1427 16.944 21.052 17.136 21.052L17.376 21.052C17.824 21.052 18.1493 20.9507 18.352 20.748C18.544 20.5453 18.64 20.2147 18.64 19.756L18.64 18.924C18.64 18.476 18.5387 18.1507 18.336 17.948C18.1227 17.7453 17.7813 17.644 17.312 17.644L16.8 17.644C16.352 17.644 16.048 17.7827 15.888 18.06C15.7173 18.3373 15.616 18.7533 15.584 19.308C15.552 20.0973 15.4933 20.6467 15.408 20.956C15.3227 21.2653 15.1893 21.548 15.008 21.804C14.6347 22.348 13.9467 22.62 12.944 22.62L12.192 22.62C11.4133 22.62 10.8053 22.4067 10.368 21.98C9.92 21.5427 9.696 20.94 9.696 20.172L9.696 19.9L8.384 19.9C8.20267 19.9 8.112 19.8093 8.112 19.628L8.112 18.892C8.112 18.7107 8.20267 18.62 8.384 18.62L9.696 18.62L9.696 18.54C9.696 17.8147 9.92 17.244 10.368 16.828C10.816 16.4013 11.424 16.188 12.192 16.188L12.544 16.188C12.736 16.188 12.832 16.2787 12.832 16.46L12.832 17.468C12.832 17.66 12.736 17.756 12.544 17.756L12.336 17.756C11.888 17.756 11.568 17.8573 11.376 18.06C11.1733 18.252 11.072 18.5773 11.072 19.036L11.072 19.772C11.072 20.2413 11.1787 20.572 11.392 20.764C11.5947 20.956 11.9467 21.052 12.448 21.052L12.992 21.052C13.3973 21.052 13.68 20.9187 13.84 20.652C14 20.3747 14.096 19.9533 14.128 19.388L14.16 18.572C14.2027 17.8253 14.416 17.2227 14.8 16.764C15.1733 16.3053 15.8187 16.076 16.736 16.076L17.504 16.076C18.2827 16.076 18.896 16.3 19.344 16.748C19.7813 17.1853 20 17.7827 20 18.54L20 18.62L21.296 18.62C21.4773 18.62 21.568 18.7107 21.568 18.892Z" fill="#222222"/>
<circle cx="14.5" cy="15" r="13.5" stroke="#222222" stroke-width="2"/>
</svg>
