<svg width="26" height="30" viewBox="0 0 26 30" fill="none" xmlns="http://www.w3.org/2000/svg">
<path fill-rule="evenodd" clip-rule="evenodd" d="M22 11.5C22 17.299 17.299 22 11.5 22C5.70101 22 1 17.299 1 11.5C1 5.70101 5.70101 1 11.5 1C17.299 1 22 5.70101 22 11.5ZM18.4592 20.656C16.5272 22.1268 14.1156 23 11.5 23C5.14873 23 0 17.8513 0 11.5C0 5.14873 5.14873 0 11.5 0C17.8513 0 23 5.14873 23 11.5C23 14.875 21.5461 17.9104 19.2306 20.0141L25.5325 29.0169C25.6909 29.2431 25.6358 29.5549 25.4096 29.7133C25.1834 29.8716 24.8716 29.8166 24.7133 29.5904L18.4592 20.656Z" fill="#222222"/>
<path fill-rule="evenodd" clip-rule="evenodd" d="M22 11.5C22 17.299 17.299 22 11.5 22C5.70101 22 1 17.299 1 11.5C1 5.70101 5.70101 1 11.5 1C17.299 1 22 5.70101 22 11.5ZM18.4592 20.656C16.5272 22.1268 14.1156 23 11.5 23C5.14873 23 0 17.8513 0 11.5C0 5.14873 5.14873 0 11.5 0C17.8513 0 23 5.14873 23 11.5C23 14.875 21.5461 17.9104 19.2306 20.0141L25.5325 29.0169C25.6909 29.2431 25.6358 29.5549 25.4096 29.7133C25.1834 29.8716 24.8716 29.8166 24.7133 29.5904L18.4592 20.656Z" fill="#245DEE"/>
</svg>
